<mxfile host="Electron" modified="2023-09-18T08:02:26.402Z" agent="Mozilla/5.0 (Macintosh; Intel Mac OS X 10_15_7) AppleWebKit/537.36 (KHTML, like Gecko) draw.io/21.6.8 Chrome/114.0.5735.289 Electron/25.5.0 Safari/537.36" etag="vFcQfxEoqGMGFRxhOXQ8" version="21.6.8" type="device">
  <diagram name="第 1 页" id="stVFPv9WS8sa22BEtzLD">
    <mxGraphModel dx="1194" dy="674" grid="1" gridSize="10" guides="1" tooltips="1" connect="1" arrows="1" fold="1" page="1" pageScale="1" pageWidth="827" pageHeight="1169" math="0" shadow="0">
      <root>
        <mxCell id="0" />
        <mxCell id="1" parent="0" />
        <mxCell id="sT1jp1uzM6etPeGNqzY1-1" value="&lt;font style=&quot;font-size: 16px;&quot;&gt;Sentence#1 [ADD] Sentence#2 [KEEP] Sentence#3 [KEEP] Sentence#4 [SUB] Sentence#5 [KEEP] Sentence#6 [KEEP] Sentence#7 [KEEP] Sentence#8 [KEEP]&lt;/font&gt;" style="rounded=1;whiteSpace=wrap;html=1;align=left;" parent="1" vertex="1">
          <mxGeometry x="170" y="190" width="410" height="90" as="geometry" />
        </mxCell>
        <mxCell id="sT1jp1uzM6etPeGNqzY1-2" value="&lt;font style=&quot;font-size: 16px;&quot;&gt;Edit Action = #[ADD] + #[SUB] + #[DEL] = 2&lt;/font&gt;" style="text;html=1;strokeColor=none;fillColor=none;align=center;verticalAlign=middle;whiteSpace=wrap;rounded=0;" parent="1" vertex="1">
          <mxGeometry x="200" y="280" width="320" height="30" as="geometry" />
        </mxCell>
        <mxCell id="sT1jp1uzM6etPeGNqzY1-3" value="&lt;font style=&quot;font-size: 16px;&quot;&gt;1&lt;sup&gt;st&lt;/sup&gt; Paragraph&lt;/font&gt;" style="text;html=1;strokeColor=none;fillColor=none;align=center;verticalAlign=middle;whiteSpace=wrap;rounded=0;fontStyle=1" parent="1" vertex="1">
          <mxGeometry x="170" y="160" width="130" height="30" as="geometry" />
        </mxCell>
        <mxCell id="sT1jp1uzM6etPeGNqzY1-4" value="&lt;font style=&quot;font-size: 18px;&quot;&gt;Instance Example&lt;/font&gt;" style="text;html=1;strokeColor=none;fillColor=none;align=center;verticalAlign=middle;whiteSpace=wrap;rounded=0;fontStyle=1" parent="1" vertex="1">
          <mxGeometry x="300" y="120" width="160" height="30" as="geometry" />
        </mxCell>
        <mxCell id="sT1jp1uzM6etPeGNqzY1-5" value="&lt;font style=&quot;font-size: 16px;&quot;&gt;Sentence#1 [ADD] Sentence#2 [KEEP] Sentence#3 [KEEP] Sentence#4 [SUB] Sentence#5 [KEEP] Sentence#6 [DEL] Sentence#7 [KEEP] Sentence#8 [KEEP]&lt;/font&gt;" style="rounded=1;whiteSpace=wrap;html=1;align=left;" parent="1" vertex="1">
          <mxGeometry x="630" y="190" width="410" height="90" as="geometry" />
        </mxCell>
        <mxCell id="sT1jp1uzM6etPeGNqzY1-6" value="&lt;font style=&quot;font-size: 16px;&quot;&gt;Edit Action = #[ADD] + #[SUB] + #[DEL] = 3&lt;/font&gt;" style="text;html=1;strokeColor=none;fillColor=none;align=center;verticalAlign=middle;whiteSpace=wrap;rounded=0;" parent="1" vertex="1">
          <mxGeometry x="660" y="280" width="320" height="30" as="geometry" />
        </mxCell>
        <mxCell id="sT1jp1uzM6etPeGNqzY1-7" value="&lt;font style=&quot;font-size: 16px;&quot;&gt;2&lt;sup&gt;nd&lt;/sup&gt; Paragraph&lt;/font&gt;" style="text;html=1;strokeColor=none;fillColor=none;align=center;verticalAlign=middle;whiteSpace=wrap;rounded=0;fontStyle=1" parent="1" vertex="1">
          <mxGeometry x="630" y="160" width="130" height="30" as="geometry" />
        </mxCell>
        <mxCell id="sT1jp1uzM6etPeGNqzY1-13" value="&lt;font style=&quot;font-size: 16px;&quot;&gt;Sentence#1 [KEEP] Sentence#2 [KEEP] Sentence#3 [KEEP] Sentence#4 [KEEP] Sentence#5 [KEEP] Sentence#6 [KEEP] Sentence#7 [KEEP] Sentence#8 [KEEP]&lt;/font&gt;" style="rounded=1;whiteSpace=wrap;html=1;align=left;" parent="1" vertex="1">
          <mxGeometry x="380" y="360" width="410" height="90" as="geometry" />
        </mxCell>
        <mxCell id="sT1jp1uzM6etPeGNqzY1-14" value="&lt;font style=&quot;font-size: 16px;&quot;&gt;Edit Action = #[ADD] + #[SUB] + #[DEL] = 0&lt;/font&gt;" style="text;html=1;strokeColor=none;fillColor=none;align=center;verticalAlign=middle;whiteSpace=wrap;rounded=0;" parent="1" vertex="1">
          <mxGeometry x="410" y="450" width="320" height="30" as="geometry" />
        </mxCell>
        <mxCell id="sT1jp1uzM6etPeGNqzY1-15" value="&lt;font style=&quot;font-size: 16px;&quot;&gt;3&lt;sup&gt;rd&lt;/sup&gt; Paragraph&lt;/font&gt;" style="text;html=1;strokeColor=none;fillColor=none;align=center;verticalAlign=middle;whiteSpace=wrap;rounded=0;fontStyle=1" parent="1" vertex="1">
          <mxGeometry x="380" y="330" width="130" height="30" as="geometry" />
        </mxCell>
        <mxCell id="sT1jp1uzM6etPeGNqzY1-17" value="&lt;font style=&quot;font-size: 16px;&quot;&gt;Mean Editions = &lt;br&gt;(2+3+0) / 3 = 1.67&lt;/font&gt;" style="text;html=1;strokeColor=none;fillColor=none;align=center;verticalAlign=middle;whiteSpace=wrap;rounded=0;fontStyle=1" parent="1" vertex="1">
          <mxGeometry x="420" y="520" width="200" height="20" as="geometry" />
        </mxCell>
        <mxCell id="sT1jp1uzM6etPeGNqzY1-18" value="&lt;font style=&quot;font-size: 16px;&quot;&gt;Sentence#1 [ADD] Sentence#2 [KEEP] Sentence#3 [KEEP] Sentence#4 [SUB] Sentence#5 [KEEP] Sentence#6 [KEEP] Sentence#7 [KEEP] Sentence#8 [KEEP]&lt;/font&gt;" style="rounded=1;whiteSpace=wrap;html=1;align=left;" parent="1" vertex="1">
          <mxGeometry x="170" y="610" width="410" height="90" as="geometry" />
        </mxCell>
        <mxCell id="sT1jp1uzM6etPeGNqzY1-19" value="&lt;font style=&quot;font-size: 16px;&quot;&gt;1&lt;sup&gt;st&lt;/sup&gt; Paragraph: &lt;font style=&quot;font-size: 16px;&quot; color=&quot;#ff0808&quot;&gt;EDIT&lt;/font&gt;&lt;/font&gt;" style="text;html=1;strokeColor=none;fillColor=none;align=center;verticalAlign=middle;whiteSpace=wrap;rounded=0;fontStyle=1" parent="1" vertex="1">
          <mxGeometry x="160" y="580" width="180" height="30" as="geometry" />
        </mxCell>
        <mxCell id="sT1jp1uzM6etPeGNqzY1-20" value="&lt;font style=&quot;font-size: 16px;&quot;&gt;Sentence#1 [ADD] Sentence#2 [KEEP] Sentence#3 [KEEP] Sentence#4 [SUB] Sentence#5 [KEEP] Sentence#6 [DEL] Sentence#7 [KEEP] Sentence#8 [KEEP]&lt;/font&gt;" style="rounded=1;whiteSpace=wrap;html=1;align=left;" parent="1" vertex="1">
          <mxGeometry x="620" y="610" width="420" height="90" as="geometry" />
        </mxCell>
        <mxCell id="sT1jp1uzM6etPeGNqzY1-21" value="&lt;font style=&quot;font-size: 16px;&quot;&gt;2&lt;sup&gt;nd&lt;/sup&gt; Paragraph: &lt;font style=&quot;font-size: 16px;&quot; color=&quot;#ff0000&quot;&gt;EDIT&lt;/font&gt;&lt;/font&gt;" style="text;html=1;strokeColor=none;fillColor=none;align=center;verticalAlign=middle;whiteSpace=wrap;rounded=0;fontStyle=1" parent="1" vertex="1">
          <mxGeometry x="630" y="580" width="190" height="30" as="geometry" />
        </mxCell>
        <mxCell id="sT1jp1uzM6etPeGNqzY1-22" value="&lt;font style=&quot;font-size: 16px;&quot;&gt;Sentence#1 [KEEP] Sentence#2 [KEEP] Sentence#3 [KEEP] Sentence#4 [KEEP] Sentence#5 [KEEP] Sentence#6 [KEEP] Sentence#7 [KEEP] Sentence#8 [KEEP]&lt;/font&gt;" style="rounded=1;whiteSpace=wrap;html=1;align=left;" parent="1" vertex="1">
          <mxGeometry x="370" y="750" width="420" height="90" as="geometry" />
        </mxCell>
        <mxCell id="sT1jp1uzM6etPeGNqzY1-23" value="&lt;font style=&quot;font-size: 16px;&quot;&gt;3&lt;sup&gt;rd&lt;/sup&gt; Paragraph: &lt;font style=&quot;font-size: 16px;&quot; color=&quot;#ff0008&quot;&gt;UNCHANGED&lt;/font&gt;&lt;/font&gt;" style="text;html=1;strokeColor=none;fillColor=none;align=center;verticalAlign=middle;whiteSpace=wrap;rounded=0;fontStyle=1" parent="1" vertex="1">
          <mxGeometry x="370" y="720" width="270" height="30" as="geometry" />
        </mxCell>
        <mxCell id="vfXSfpl_AweCN3PmmmPM-1" value="" style="endArrow=classic;html=1;rounded=0;fontStyle=1;strokeWidth=2;" parent="1" edge="1">
          <mxGeometry width="50" height="50" relative="1" as="geometry">
            <mxPoint x="600" y="490" as="sourcePoint" />
            <mxPoint x="600" y="590" as="targetPoint" />
          </mxGeometry>
        </mxCell>
      </root>
    </mxGraphModel>
  </diagram>
</mxfile>
